<svg width="50" height="50" viewBox="0 0 50 50" fill="none" xmlns="http://www.w3.org/2000/svg">
<path fill-rule="evenodd" clip-rule="evenodd" d="M19.2088 1.4823C16.8636 1.4823 14.9624 3.38346 14.9624 5.72866C14.9624 8.07386 16.8636 9.97502 19.2088 9.97502H30.7258C32.2843 9.97502 33.6466 9.13549 34.3853 7.88402C35.9712 7.93369 37.5969 8.59591 38.8396 9.65593C40.1309 10.7574 40.9411 12.2257 40.9411 13.7863V40.9252C40.9411 44.1866 38.2973 46.8305 35.0359 46.8305H14.9642C11.7028 46.8305 9.05892 44.1866 9.05892 40.9252V13.7863C9.05892 11.6764 10.1648 9.8242 11.8326 8.77871C12.2273 8.53124 12.3467 8.01061 12.0993 7.61586C11.8518 7.2211 11.3312 7.1017 10.9364 7.34916C8.79715 8.69023 7.3717 11.0715 7.3717 13.7863V40.9252C7.3717 45.1184 10.771 48.5177 14.9642 48.5177H35.0359C39.2291 48.5177 42.6284 45.1184 42.6284 40.9252V13.7863C42.6284 11.6195 41.5069 9.71346 39.9346 8.37228C38.5523 7.1932 36.7694 6.40234 34.943 6.22947C34.9623 6.06521 34.9722 5.8981 34.9722 5.72866C34.9722 3.38346 33.071 1.4823 30.7258 1.4823H19.2088ZM16.6496 5.72866C16.6496 4.31528 17.7954 3.16952 19.2088 3.16952H30.7258C32.1392 3.16952 33.285 4.31528 33.285 5.72866C33.285 7.14203 32.1392 8.2878 30.7258 8.2878H19.2088C17.7954 8.2878 16.6496 7.14203 16.6496 5.72866Z" fill="#3D3D3D"/>
<path fill-rule="evenodd" clip-rule="evenodd" d="M16.2712 20.5246C16.2712 20.0587 16.6489 19.681 17.1148 19.681H32.8198C33.2857 19.681 33.6634 20.0587 33.6634 20.5246C33.6634 20.9905 33.2857 21.3682 32.8198 21.3682H17.1148C16.6489 21.3682 16.2712 20.9905 16.2712 20.5246Z" fill="#3D3D3D"/>
<path fill-rule="evenodd" clip-rule="evenodd" d="M16.2712 26.872C16.2712 26.4061 16.6489 26.0284 17.1148 26.0284H32.8198C33.2857 26.0284 33.6634 26.4061 33.6634 26.872C33.6634 27.338 33.2857 27.7156 32.8198 27.7156H17.1148C16.6489 27.7156 16.2712 27.338 16.2712 26.872Z" fill="#3D3D3D"/>
<path fill-rule="evenodd" clip-rule="evenodd" d="M16.2712 33.2194C16.2712 32.7534 16.487 32.3757 16.7533 32.3757H25.7285C25.9948 32.3757 26.2106 32.7534 26.2106 33.2194C26.2106 33.6853 25.9948 34.063 25.7285 34.063H16.7533C16.487 34.063 16.2712 33.6853 16.2712 33.2194Z" fill="#3D3D3D"/>
</svg>
